<svg xmlns="http://www.w3.org/2000/svg" viewBox="0 0 461 257"><defs><style>.cls-1{fill:#fff;}.cls-2{opacity:0.7;}</style></defs><title>LOGOTIPO-AEIQSEC2</title><g id="Capa_2" data-name="Capa 2"><path class="cls-1" d="M15.19,181a37.46,37.46,0,0,1,7.39-16.88c4-5,8.94-8.75,13.76-12.36,2.79-2.1,5.43-4.08,7.87-6.28,5.59-5.05,10.74-13,8.44-20.1-1.55-4.79-6.29-8.47-10.88-12l-1.12-.87c-14.46-11.3-23.33-22.88-27.12-35.38a41.17,41.17,0,0,1-1.16-4.93l8.5-.54c.21,1,.46,2,.75,3,3.27,10.78,11.19,21,24.23,31.16l1.11.87c5.34,4.14,11.39,8.84,13.74,16.11,3.54,11-3.27,22.16-10.83,29-2.72,2.46-5.63,4.64-8.46,6.76-4.58,3.44-8.92,6.7-12.19,10.84a29,29,0,0,0-5.52,11.92"/><path class="cls-1" d="M47.89,180.9a25.71,25.71,0,0,0-.43-8.9c-2-8.56-8.53-15.42-14.84-22.06l-2.42-2.55c-5.94-6.34-13.55-15.79-13.6-26.6a23.27,23.27,0,0,1,.15-2.75c.9-7.75,5.73-15.06,14.76-22.35,1.82-1.47,3.71-2.89,5.54-4.26C42.16,87.59,47,84,50.67,79.19a21.46,21.46,0,0,0,3.87-7.78l4.47-1a24.7,24.7,0,0,1-5,11.39C50,87,44.7,91,39.59,94.81c-1.8,1.35-3.66,2.75-5.42,4.17-8.13,6.56-12.45,13-13.22,19.55-1.18,10.21,6.48,19.71,12.34,26L35.68,147c6.71,7.05,13.64,14.33,15.89,24a29.74,29.74,0,0,1,.54,10.14"/><g class="cls-2"><path class="cls-1" d="M47.26,73.27A86.07,86.07,0,0,1,26.63,71.6c-1.42-.28-2,1.88-.6,2.17a89,89,0,0,0,21.23,1.75c1.45,0,1.45-2.3,0-2.25Z"/></g><g class="cls-2"><path class="cls-1" d="M43.28,80.48a41.38,41.38,0,0,1-14.08-1.7A1.13,1.13,0,0,0,28.6,81a43.12,43.12,0,0,0,14.68,1.78c1.44-.08,1.45-2.33,0-2.25Z"/></g><g class="cls-2"><path class="cls-1" d="M46.68,126.35a75.6,75.6,0,0,1-9.87-.14c-3.25-.31-6.48-.92-9.71-1.41-1.42-.21-2,2-.6,2.17,3.36.51,6.72,1.13,10.1,1.47a75.35,75.35,0,0,0,10.08.16c1.44,0,1.45-2.29,0-2.25Z"/></g><g class="cls-2"><path class="cls-1" d="M44.6,132.89c-5,.71-10,.31-15,.34a1.13,1.13,0,0,0,0,2.25c5.24,0,10.41.32,15.63-.42a1.13,1.13,0,0,0-.6-2.17Z"/></g><g class="cls-2"><path class="cls-1" d="M42.11,117.4a110.1,110.1,0,0,0-15.38-1.56,1.13,1.13,0,0,0,0,2.25,106.17,106.17,0,0,1,14.78,1.48c1.42.25,2-1.92.6-2.17Z"/></g><g class="cls-2"><path class="cls-1" d="M45.53,177.2a81.81,81.81,0,0,1-17.62-.89c-1.42-.23-2,1.94-.6,2.17a84.23,84.23,0,0,0,18.22,1c1.44-.08,1.45-2.33,0-2.25Z"/></g><g class="cls-2"><path class="cls-1" d="M44,170.06a28.3,28.3,0,0,1-11.36-1.65,1.13,1.13,0,0,0-1.39.78,1.15,1.15,0,0,0,.79,1.39,30,30,0,0,0,12,1.73c1.44-.09,1.45-2.34,0-2.25Z"/></g><path class="cls-1" d="M82.92,180l4.74-11.33h0L92.42,180H90.58l-1.06-2.59H85.75L84.69,180ZM86.34,176h2.59l-.68-1.65q-.16-.44-.33-.84c-.1-.27-.2-.6-.3-1a8.83,8.83,0,0,1-.28,1c-.1.28-.21.56-.33.85Z"/><path class="cls-1" d="M96.53,180.22a4.24,4.24,0,0,1-1.25-.17,4.43,4.43,0,0,1-1.08-.48,3.62,3.62,0,0,1-.82-.65l.5-2a3.62,3.62,0,0,0,.67.87,3.15,3.15,0,0,0,.93.64,2.64,2.64,0,0,0,1.11.24,1.88,1.88,0,0,0,.91-.21,1.7,1.7,0,0,0,.6-.56,1.49,1.49,0,0,0,.22-.81,1.36,1.36,0,0,0-.24-.83,2.15,2.15,0,0,0-.56-.53,4.62,4.62,0,0,0-.52-.3l-1.31-.67a7,7,0,0,1-.93-.56,3.11,3.11,0,0,1-.83-.9,2.71,2.71,0,0,1-.33-1.4,3.09,3.09,0,0,1,.22-1.2,2.55,2.55,0,0,1,.66-.93,3.1,3.1,0,0,1,1-.62,3.87,3.87,0,0,1,1.31-.22,4.21,4.21,0,0,1,1.64.31,5.45,5.45,0,0,1,1.13.65l-.47,2a3.77,3.77,0,0,0-.64-.69,3.45,3.45,0,0,0-.81-.51,2.31,2.31,0,0,0-.92-.2,1.65,1.65,0,0,0-.77.17,1.28,1.28,0,0,0-.49.46,1.2,1.2,0,0,0-.18.65,1.16,1.16,0,0,0,.18.66,1.32,1.32,0,0,0,.44.44,5.92,5.92,0,0,0,.52.31l1.33.66a7.15,7.15,0,0,1,.67.38,3.61,3.61,0,0,1,.74.6,3,3,0,0,1,.61.9,3.1,3.1,0,0,1,.23,1.25,3.15,3.15,0,0,1-1.66,2.85A3.7,3.7,0,0,1,96.53,180.22Z"/><path class="cls-1" d="M107.08,180.25a5.79,5.79,0,0,1-4.06-1.67,5.86,5.86,0,0,1-1.25-1.81,5.68,5.68,0,0,1,0-4.43,5.76,5.76,0,0,1,5.31-3.48,5.82,5.82,0,0,1,2.25.44,6,6,0,0,1,1.83,1.23,5.38,5.38,0,0,1,1.23,1.81,5.66,5.66,0,0,1-1.23,6.24,5.81,5.81,0,0,1-1.83,1.22A5.65,5.65,0,0,1,107.08,180.25Zm0-1.72a3.85,3.85,0,0,0,2.77-1.16,4,4,0,0,0,.83-1.26,4.05,4.05,0,0,0,.3-1.56,4,4,0,0,0-1.13-2.81,3.89,3.89,0,0,0-4.3-.86,4.12,4.12,0,0,0-1.24.86,4,4,0,0,0-.83,1.26,4.19,4.19,0,0,0-.29,1.55,4.24,4.24,0,0,0,.29,1.56,4,4,0,0,0,.83,1.26,3.92,3.92,0,0,0,1.24.85A3.7,3.7,0,0,0,107.08,178.53Z"/><path class="cls-1" d="M120,180.25a5.55,5.55,0,0,1-2.23-.45,5.78,5.78,0,0,1-3.07-3,5.63,5.63,0,0,1,1.24-6.24,5.89,5.89,0,0,1,1.83-1.23,5.72,5.72,0,0,1,2.23-.44,5.8,5.8,0,0,1,2.13.39,5.93,5.93,0,0,1,1.75,1.09l-.51,2.12A4.24,4.24,0,0,0,122,171.1a3.71,3.71,0,0,0-2-.53,3.8,3.8,0,0,0-2.77,1.17,4,4,0,0,0-1.13,2.81,4.05,4.05,0,0,0,.3,1.56,4,4,0,0,0,.83,1.26,3.85,3.85,0,0,0,2.77,1.16,3.63,3.63,0,0,0,2-.53,4.11,4.11,0,0,0,1.37-1.35l.51,2.11a6,6,0,0,1-1.76,1.09A5.52,5.52,0,0,1,120,180.25Z"/><path class="cls-1" d="M125.76,180V169.08h1.83V180Z"/><path class="cls-1" d="M129.23,180,134,168.7h0L138.73,180h-1.84l-1.06-2.59h-3.77L131,180Zm3.42-4.05h2.59l-.68-1.65q-.17-.44-.33-.84c-.1-.27-.2-.6-.3-1a8.83,8.83,0,0,1-.28,1c-.1.28-.21.56-.33.85Z"/><path class="cls-1" d="M145,180.25a5.55,5.55,0,0,1-2.23-.45,5.81,5.81,0,0,1-1.83-1.22,5.67,5.67,0,0,1-1.24-1.81,5.63,5.63,0,0,1,1.24-6.24,6,6,0,0,1,1.83-1.23,5.94,5.94,0,0,1,4.36-.05,6.12,6.12,0,0,1,1.76,1.09l-.52,2.12A4.24,4.24,0,0,0,147,171.1a3.71,3.71,0,0,0-2-.53,3.87,3.87,0,0,0-1.53.31,4,4,0,0,0-2.37,3.67,4.05,4.05,0,0,0,.3,1.56,4,4,0,0,0,.83,1.26,3.81,3.81,0,0,0,1.24.85,3.7,3.7,0,0,0,1.53.31,3.63,3.63,0,0,0,2-.53,4.11,4.11,0,0,0,1.37-1.35l.52,2.11a6.17,6.17,0,0,1-1.77,1.09A5.52,5.52,0,0,1,145,180.25Z"/><path class="cls-1" d="M150.77,180V169.08h1.83V180Z"/><path class="cls-1" d="M160.51,180.25a5.79,5.79,0,0,1-4.06-1.67,5.7,5.7,0,0,1-1.25-1.81,5.68,5.68,0,0,1,0-4.43,5.59,5.59,0,0,1,1.25-1.81,5.84,5.84,0,0,1,6.31-1.23,6,6,0,0,1,1.83,1.23,5.38,5.38,0,0,1,1.23,1.81,5.66,5.66,0,0,1-1.23,6.24,5.81,5.81,0,0,1-1.83,1.22A5.65,5.65,0,0,1,160.51,180.25Zm0-1.72a3.7,3.7,0,0,0,1.53-.31,3.81,3.81,0,0,0,1.24-.85,4,4,0,0,0,.83-1.26,4.05,4.05,0,0,0,.3-1.56,4,4,0,0,0-2.37-3.67,3.93,3.93,0,0,0-3.06,0,4,4,0,0,0-2.07,2.12,4.19,4.19,0,0,0-.29,1.55,4.24,4.24,0,0,0,.29,1.56,4,4,0,0,0,.83,1.26,3.81,3.81,0,0,0,1.24.85A3.7,3.7,0,0,0,160.51,178.53Zm-.86-10.48,1.8-2.33h2.18l-2.35,2.33Z"/><path class="cls-1" d="M177.09,180.4,170,173v7h-1.68V168.71h0l7.09,7.39v-7h1.68V180.4Z"/><path class="cls-1" d="M187.12,180V169.08h5.62v1.57h-3.87v2h3v1.53h-3v4.23h3.87V180Z"/><path class="cls-1" d="M197.36,180.22a4.34,4.34,0,0,1-1.25-.17,4.43,4.43,0,0,1-1.08-.48,3.85,3.85,0,0,1-.82-.65l.5-2a3.62,3.62,0,0,0,.67.87,3.33,3.33,0,0,0,.94.64,2.59,2.59,0,0,0,1.1.24,1.85,1.85,0,0,0,.91-.21,1.55,1.55,0,0,0,.6-.56,1.49,1.49,0,0,0,.22-.81,1.36,1.36,0,0,0-.24-.83,2,2,0,0,0-.56-.53,3.86,3.86,0,0,0-.51-.3l-1.32-.67a7,7,0,0,1-.93-.56,3.25,3.25,0,0,1-.83-.9,2.71,2.71,0,0,1-.33-1.4,2.92,2.92,0,0,1,.23-1.2,2.53,2.53,0,0,1,.65-.93,3.1,3.1,0,0,1,1-.62,3.91,3.91,0,0,1,1.31-.22,4.17,4.17,0,0,1,1.64.31,5.84,5.84,0,0,1,1.14.65l-.48,2a3.45,3.45,0,0,0-.64-.69,3.08,3.08,0,0,0-.81-.51,2.28,2.28,0,0,0-.92-.2,1.65,1.65,0,0,0-.77.17,1.36,1.36,0,0,0-.49.46,1.2,1.2,0,0,0-.18.65,1.16,1.16,0,0,0,.18.66,1.54,1.54,0,0,0,.44.44,6,6,0,0,0,.53.31l1.32.66a7.15,7.15,0,0,1,.67.38,3.66,3.66,0,0,1,.75.6,3.22,3.22,0,0,1,.6.9,2.93,2.93,0,0,1,.24,1.25,3.29,3.29,0,0,1-.44,1.68,3.15,3.15,0,0,1-1.23,1.17A3.7,3.7,0,0,1,197.36,180.22Z"/><path class="cls-1" d="M202.82,180V169.08h3a4.78,4.78,0,0,1,1.89.33,3.35,3.35,0,0,1,1.25.88,3.54,3.54,0,0,1,.7,1.17,3.63,3.63,0,0,1,0,2.49,3.3,3.3,0,0,1-.69,1.18,3.47,3.47,0,0,1-1.26.88,4.78,4.78,0,0,1-1.89.33h-1.25V180Zm1.75-5.24h1.15a2.68,2.68,0,0,0,1.41-.32,1.73,1.73,0,0,0,.74-.78,2.25,2.25,0,0,0,0-1.94,1.81,1.81,0,0,0-.72-.79,2.74,2.74,0,0,0-1.43-.31h-1.15Z"/><path class="cls-1" d="M209.44,180l4.73-11.33h0L218.93,180h-1.84L216,177.44h-3.77L211.2,180Zm3.42-4.05h2.59l-.68-1.65q-.18-.44-.33-.84a8.62,8.62,0,0,1-.31-1,7,7,0,0,1-.28,1c-.09.28-.2.56-.32.85Z"/><path class="cls-1" d="M229.24,180.4l-7.1-7.39v7h-1.68V168.71h0l7.09,7.39v-7h1.68V180.4Zm-7.11-11.71-.34-1.32a1.85,1.85,0,0,1,.66-.72,1.57,1.57,0,0,1,.86-.25,1.87,1.87,0,0,1,.88.21l.81.43a1.63,1.63,0,0,0,.78.21,1.07,1.07,0,0,0,.68-.23,1.63,1.63,0,0,0,.49-.66l.34,1.33a1.87,1.87,0,0,1-.65.71,1.55,1.55,0,0,1-.87.25,1.93,1.93,0,0,1-.88-.21l-.8-.43a1.64,1.64,0,0,0-.79-.21,1.07,1.07,0,0,0-.68.23A1.63,1.63,0,0,0,222.13,168.69Z"/><path class="cls-1" d="M237.06,180.25a5.59,5.59,0,0,1-2.23-.45,5.81,5.81,0,0,1-1.83-1.22,5.67,5.67,0,0,1-1.24-1.81,5.63,5.63,0,0,1,1.24-6.24,6,6,0,0,1,1.83-1.23,5.92,5.92,0,0,1,4.48,0,6,6,0,0,1,1.83,1.23,5.56,5.56,0,0,1,1.24,1.81,5.63,5.63,0,0,1-1.24,6.24,5.81,5.81,0,0,1-1.83,1.22A5.58,5.58,0,0,1,237.06,180.25Zm0-1.72a3.72,3.72,0,0,0,1.54-.31,3.77,3.77,0,0,0,1.23-.85,3.84,3.84,0,0,0,.83-1.26,4.05,4.05,0,0,0,.3-1.56,4,4,0,0,0-.3-1.55,3.84,3.84,0,0,0-.83-1.26,4,4,0,0,0-1.23-.86,4,4,0,0,0-3.07,0,4,4,0,0,0-1.23.86,3.84,3.84,0,0,0-.83,1.26,4,4,0,0,0-.3,1.55,4.05,4.05,0,0,0,.3,1.56,3.84,3.84,0,0,0,.83,1.26,3.77,3.77,0,0,0,1.23.85A3.7,3.7,0,0,0,237.06,178.53Z"/><path class="cls-1" d="M244.87,180V169.08h1.82v9.34h3.54V180Z"/><path class="cls-1" d="M251,180l4.73-11.33h0L260.49,180h-1.83l-1.06-2.59h-3.78L252.76,180Zm3.42-4.05H257l-.68-1.65q-.16-.44-.33-.84c-.1-.27-.2-.6-.3-1a8.83,8.83,0,0,1-.28,1c-.1.28-.21.56-.33.85Z"/><path class="cls-1" d="M265.68,180V168.71h0l5.13,6.74,5-6.74h0V180h-1.76v-4.1c0-.35,0-.73,0-1.15s.05-.9.11-1.44c-.26.43-.5.81-.73,1.13s-.45.62-.65.9l-2.08,2.87-2.15-2.87-.66-.91c-.25-.34-.49-.72-.74-1.14.05.55.09,1,.1,1.45s0,.81,0,1.16V180Z"/><path class="cls-1" d="M282.1,180.22a4,4,0,0,1-2-.46,3.31,3.31,0,0,1-1.34-1.31,3.94,3.94,0,0,1-.49-2v-7.38h1.83v7.31a2.45,2.45,0,0,0,.25,1.14,1.86,1.86,0,0,0,.71.76,2.06,2.06,0,0,0,2,0,2,2,0,0,0,.7-.74,2.29,2.29,0,0,0,.25-1.1v-7.37h1.77v7.35a3.94,3.94,0,0,1-.49,2,3.51,3.51,0,0,1-1.33,1.32A4,4,0,0,1,282.1,180.22Z"/><path class="cls-1" d="M290.31,180v-9.35h-2.8v-1.6h7.43v1.6h-2.8V180Z"/><path class="cls-1" d="M294.21,180l4.73-11.33h0L303.7,180h-1.84l-1.06-2.59H297L296,180Zm3.42-4.05h2.59l-.68-1.65q-.18-.44-.33-.84a8.62,8.62,0,0,1-.31-1,8.83,8.83,0,0,1-.28,1,8.23,8.23,0,0,1-.33.85Z"/><path class="cls-1" d="M310,180.25a5.6,5.6,0,0,1-2.24-.45,5.81,5.81,0,0,1-1.83-1.22,5.67,5.67,0,0,1-1.24-1.81,5.63,5.63,0,0,1,1.24-6.24,6,6,0,0,1,1.83-1.23,5.94,5.94,0,0,1,4.36-.05,6,6,0,0,1,1.76,1.09l-.51,2.12A4.18,4.18,0,0,0,312,171.1a3.69,3.69,0,0,0-2-.53,3.87,3.87,0,0,0-1.53.31,4.12,4.12,0,0,0-1.24.86,4,4,0,0,0-1.12,2.81,4.05,4.05,0,0,0,.3,1.56,4,4,0,0,0,.82,1.26,3.92,3.92,0,0,0,1.24.85,3.7,3.7,0,0,0,1.53.31,3.6,3.6,0,0,0,2-.53,4.05,4.05,0,0,0,1.38-1.35l.51,2.11a6.17,6.17,0,0,1-1.77,1.09A5.47,5.47,0,0,1,310,180.25Z"/><path class="cls-1" d="M315.75,180V169.08h1.82V180Z"/><path class="cls-1" d="M325.48,180.25a5.59,5.59,0,0,1-2.23-.45,5.81,5.81,0,0,1-1.83-1.22,5.67,5.67,0,0,1-1.24-1.81,5.63,5.63,0,0,1,1.24-6.24,6,6,0,0,1,1.83-1.23,5.92,5.92,0,0,1,4.48,0,6,6,0,0,1,1.83,1.23,5.56,5.56,0,0,1,1.24,1.81,5.63,5.63,0,0,1-1.24,6.24,5.81,5.81,0,0,1-1.83,1.22A5.58,5.58,0,0,1,325.48,180.25Zm0-1.72a3.72,3.72,0,0,0,1.54-.31,3.77,3.77,0,0,0,1.23-.85,3.84,3.84,0,0,0,.83-1.26,4.05,4.05,0,0,0,.3-1.56,4,4,0,0,0-.3-1.55,3.84,3.84,0,0,0-.83-1.26,4,4,0,0,0-1.23-.86,4,4,0,0,0-3.07,0,4,4,0,0,0-1.23.86,3.84,3.84,0,0,0-.83,1.26,4,4,0,0,0-.3,1.55,4.05,4.05,0,0,0,.3,1.56,3.84,3.84,0,0,0,.83,1.26,3.77,3.77,0,0,0,1.23.85A3.7,3.7,0,0,0,325.48,178.53Zm-.86-10.48,1.8-2.33h2.18l-2.35,2.33Z"/><path class="cls-1" d="M342.06,180.4,335,173v7h-1.68V168.71h0l7.1,7.39v-7h1.68V180.4Z"/><path class="cls-1" d="M353.59,180.25a5.85,5.85,0,0,1-2.27-.43,5.67,5.67,0,0,1-3.09-3,5.78,5.78,0,0,1,0-4.47,5.74,5.74,0,0,1,1.25-1.82,5.82,5.82,0,0,1,1.84-1.21,5.67,5.67,0,0,1,2.27-.44,5.85,5.85,0,0,1,2.14.39,6,6,0,0,1,1.76,1.09l-.51,2.1a3.94,3.94,0,0,0-1.39-1.36,3.81,3.81,0,0,0-2-.53,4,4,0,0,0-1.56.3,3.92,3.92,0,0,0-1.26.86,4,4,0,0,0-.83,1.27,4.34,4.34,0,0,0,0,3.17,4,4,0,0,0,.82,1.28,3.89,3.89,0,0,0,1.26.85,4,4,0,0,0,1.55.3,4.47,4.47,0,0,0,1.12-.13,3.25,3.25,0,0,0,.94-.38v-2.49H353V174h4.3v5.07a5.7,5.7,0,0,1-1.71.85A7,7,0,0,1,353.59,180.25Z"/><path class="cls-1" d="M359.76,180V169.08h5.62v1.57h-3.87v2h3v1.53h-3v4.23h3.87V180Z"/><path class="cls-1" d="M376.2,180.4,369.1,173v7h-1.68V168.71h0l7.09,7.39v-7h1.68V180.4Z"/><path class="cls-1" d="M382.69,180V169.08h1.82V180Z"/><path class="cls-1" d="M396.22,180.4l-.8-1A6.33,6.33,0,0,1,394,180a5.79,5.79,0,0,1-3.82-.23,5.81,5.81,0,0,1-1.83-1.22,5.67,5.67,0,0,1-1.24-1.81,5.63,5.63,0,0,1,1.24-6.24,6,6,0,0,1,1.83-1.23,5.9,5.9,0,0,1,4.47,0,6,6,0,0,1,1.83,1.23,5.56,5.56,0,0,1,1.24,1.81,5.66,5.66,0,0,1,0,4.35,5.68,5.68,0,0,1-1.14,1.76l1.62,2Zm-3.8-1.87a3.93,3.93,0,0,0,1-.12,3.68,3.68,0,0,0,.87-.35l-2.92-3.51h2l2.09,2.5a4.1,4.1,0,0,0,.62-1.15,4,4,0,0,0-2.13-5,3.92,3.92,0,0,0-1.54-.31,3.87,3.87,0,0,0-1.53.31,4.12,4.12,0,0,0-1.24.86,4,4,0,0,0-1.12,2.81,4.05,4.05,0,0,0,.3,1.56,4,4,0,0,0,.82,1.26,3.92,3.92,0,0,0,1.24.85A3.7,3.7,0,0,0,392.42,178.53Z"/><path class="cls-1" d="M402.56,180.22a4.29,4.29,0,0,1-1.25-.17,4.43,4.43,0,0,1-1.08-.48,3.85,3.85,0,0,1-.82-.65l.5-2a3.62,3.62,0,0,0,.67.87,3.28,3.28,0,0,0,.93.64,2.64,2.64,0,0,0,1.11.24,1.88,1.88,0,0,0,.91-.21,1.7,1.7,0,0,0,.6-.56,1.49,1.49,0,0,0,.22-.81,1.36,1.36,0,0,0-.24-.83,2.15,2.15,0,0,0-.56-.53,4.63,4.63,0,0,0-.51-.3l-1.32-.67a7,7,0,0,1-.93-.56,3.25,3.25,0,0,1-.83-.9,2.71,2.71,0,0,1-.33-1.4,3.09,3.09,0,0,1,.22-1.2,2.55,2.55,0,0,1,.66-.93,3.1,3.1,0,0,1,1-.62,3.91,3.91,0,0,1,1.31-.22,4.21,4.21,0,0,1,1.64.31,5.84,5.84,0,0,1,1.14.65l-.48,2a3.77,3.77,0,0,0-.64-.69,3.45,3.45,0,0,0-.81-.51,2.31,2.31,0,0,0-.92-.2,1.65,1.65,0,0,0-.77.17,1.36,1.36,0,0,0-.49.46,1.2,1.2,0,0,0-.18.65,1.16,1.16,0,0,0,.18.66,1.42,1.42,0,0,0,.44.44,6,6,0,0,0,.53.31l1.32.66a7.15,7.15,0,0,1,.67.38,3.61,3.61,0,0,1,.74.6,3,3,0,0,1,.61.9,2.94,2.94,0,0,1,.23,1.25,3.28,3.28,0,0,1-.43,1.68,3.22,3.22,0,0,1-1.23,1.17A3.7,3.7,0,0,1,402.56,180.22Z"/><path class="cls-1" d="M408,180V169.08h5.63v1.57h-3.87v2h3v1.53h-3v4.23h3.87V180Z"/><path class="cls-1" d="M420.42,180.25a5.6,5.6,0,0,1-2.24-.45,5.81,5.81,0,0,1-1.83-1.22,5.67,5.67,0,0,1-1.24-1.81,5.63,5.63,0,0,1,1.24-6.24,6,6,0,0,1,1.83-1.23,5.94,5.94,0,0,1,4.36-.05,6,6,0,0,1,1.76,1.09l-.51,2.12a4.18,4.18,0,0,0-1.38-1.36,3.69,3.69,0,0,0-2-.53,3.87,3.87,0,0,0-1.53.31,4.12,4.12,0,0,0-1.24.86,3.81,3.81,0,0,0-.82,1.26,4,4,0,0,0-.3,1.55,4.05,4.05,0,0,0,.3,1.56,3.81,3.81,0,0,0,.82,1.26,3.92,3.92,0,0,0,1.24.85,3.7,3.7,0,0,0,1.53.31,3.6,3.6,0,0,0,2-.53,4.05,4.05,0,0,0,1.38-1.35l.51,2.11a6.17,6.17,0,0,1-1.77,1.09A5.47,5.47,0,0,1,420.42,180.25Z"/><path class="cls-1" d="M426,180v0l4.42-6.52a3.63,3.63,0,0,0,.41-.75,2,2,0,0,0,.1-.57,1.67,1.67,0,0,0-.23-.85,1.81,1.81,0,0,0-.62-.61,1.72,1.72,0,0,0-.88-.22,1.74,1.74,0,0,0-.88.22,1.7,1.7,0,0,0-.61.61,1.67,1.67,0,0,0-.23.85,1.76,1.76,0,0,0,.19.78,2,2,0,0,0,.55.68h-2a3.13,3.13,0,0,1-.37-1.46,3.05,3.05,0,0,1,.26-1.28,3.17,3.17,0,0,1,.72-1,3.34,3.34,0,0,1,1.09-.7,3.41,3.41,0,0,1,1.32-.26,3.53,3.53,0,0,1,2.41,1,3,3,0,0,1,.74,1,3.14,3.14,0,0,1,.27,1.29,3.53,3.53,0,0,1-.08.72,3.67,3.67,0,0,1-.27.71,7,7,0,0,1-.47.78l-2.82,4h3.81V180Z"/><path class="cls-1" d="M94.65,70.47a14.56,14.56,0,0,1,1.89-.19,9.25,9.25,0,0,1,4.81,1.23A12.06,12.06,0,0,1,107,78.68q1.78,5.47-1.51,9.35-4.82,5.39-10.58,4.62A11.2,11.2,0,0,1,87,87.08a11.21,11.21,0,0,1-1.6-9.34q1.51-5.67,8-7.27A2,2,0,0,1,94.65,70.47Zm-8.87,38.38a10.31,10.31,0,0,1,3.58-7.13,10.43,10.43,0,0,1,7-2.6,10.3,10.3,0,0,1,7.08,2.6A12.12,12.12,0,0,1,107.3,110q.57,6.06.57,32.32a11.38,11.38,0,0,1-3.59,8.87,11.25,11.25,0,0,1-7.36,2.91,10.91,10.91,0,0,1-7.37-2.7A11.25,11.25,0,0,1,85.49,143q-.46-7.89-.42-18.11t.52-15.29A1.88,1.88,0,0,1,85.78,108.85Zm7.55-32.34a3.94,3.94,0,0,0-2.45,2.74,5.86,5.86,0,0,0,.94,4.91,5.46,5.46,0,0,0,4,2.83q2.55.47,5.48-2.74c.82-.94.94-2.23.38-3.87a6.69,6.69,0,0,0-3-4q-1.61-.75-4.82,0a.8.8,0,0,0-.23,0A.93.93,0,0,1,93.33,76.51ZM91.16,111q-.48,5-.47,14.65t.47,16.92a5.11,5.11,0,0,0,1.7,3.67,6.14,6.14,0,0,0,4.06,1.41,6.25,6.25,0,0,0,3.77-1.41,5.24,5.24,0,0,0,1.51-3.89q0-24.86-.47-31.67a5.61,5.61,0,0,0-1.79-3.78,5.1,5.1,0,0,0-3.59-1.3,5,5,0,0,0-3.49,1.19A4.48,4.48,0,0,0,91.35,110a.64.64,0,0,0-.1.43A1.38,1.38,0,0,1,91.16,111Z"/><path class="cls-1" d="M154.38,108.46a19.68,19.68,0,0,0-3.43-3.59,1.47,1.47,0,0,0-.54-.54,15.05,15.05,0,0,0-7.83-3.12,11.42,11.42,0,0,0-7.34,2q-5.94,3.76-7.85,12.5t2,15.11q4.69,7.65,15.19,7.23s3.27.34,3.51-.52c.4-1.36-3.25-2.8-4-4s-2.36-4.46-2-6a1.86,1.86,0,0,0,0-.27,4.43,4.43,0,0,1,4.37-3.81,11.54,11.54,0,0,1,1.58.08c1.4.23,2.87,3.16,4,4,.7.52,2.26,1.93,3.08,1.63h0a24.65,24.65,0,0,0,1.62-14.62A17.83,17.83,0,0,0,154.38,108.46Zm-2.54,10.06c-.61.93-2.85-3-6.59-2.19a9.13,9.13,0,0,0-4.77,2.27,9.73,9.73,0,0,0-2.63,5.9c-.23,2.19,1,6.79.23,7-1.18.34-6-7.2-6-12a15.71,15.71,0,0,1,2.2-7.56c.71-1,2.88-4,6.58-4.39,4.36-.51,7.44,2.9,8.78,4.39C150,112.34,152.58,117.38,151.84,118.52Z"/><path class="cls-1" d="M180,145.22a10.87,10.87,0,0,0-4.65-5.11q-3.72-2.22-6.43-3.6a6.21,6.21,0,0,1-.79-.34,60.07,60.07,0,0,0,2.19-6.52A32.21,32.21,0,0,0,156,91.5a26.41,26.41,0,0,0-12-3.55q-7.86-.58-12.84,2.34-12.72,7.44-16.19,20.51A33.64,33.64,0,0,0,117.08,134a33,33,0,0,0,6.51,9.62,29.48,29.48,0,0,0,9,6.38q10.8,4.68,22.32-.72a22.62,22.62,0,0,0,5.73,3.85,33.45,33.45,0,0,0,6.86,2.5c3.22.78,5.89.77,8,0a6.87,6.87,0,0,0,4.65-4.29A7.59,7.59,0,0,0,180,145.22Zm-6.35,2.34a2.93,2.93,0,0,1-1.86,1.65,9.49,9.49,0,0,1-5.22,0,32.37,32.37,0,0,1-5.57-2.06,14.46,14.46,0,0,1-5.13-3.8,2.5,2.5,0,0,0-1.22-.73,2.62,2.62,0,0,0-1.43.21q-9.76,5.2-18.74,1.26-8.23-3.63-12.48-13a27.49,27.49,0,0,1-1.8-19q2.7-10.47,13.22-16.69,3.59-2.12,9.71-1.66a20.84,20.84,0,0,1,9.49,2.69,26.29,26.29,0,0,1,13.15,22.62,31.79,31.79,0,0,1-1.42,8.61,74.2,74.2,0,0,1-2.69,7.48,1.88,1.88,0,0,0-.06,1.57,2.1,2.1,0,0,0,1.14,1.13s.07,0,.07,0,0,0,.07,0,.12,0,.23.1.18.12.22.11l.52.24.67.32.6.3q3.3,1.69,5.74,3.15a6.53,6.53,0,0,1,2.57,2.7A3.24,3.24,0,0,1,173.68,147.56Z"/><path class="cls-1" d="M205.4,109c.37.25.82.52,1.37.83,1.84,1,3.24,1.71,4.22,2.2l5.14,2.56q6.87,3.77,9.9,7,4.77,4.77,4.49,10.27a.86.86,0,0,1,0,.55,23.67,23.67,0,0,1-4.58,12.93,19.53,19.53,0,0,1-9.17,6.51,34.59,34.59,0,0,1-10.27,1.74,66.74,66.74,0,0,1-9-.55,26.2,26.2,0,0,1-12.65-5.32,14.69,14.69,0,0,1-4.77-5.87,12.15,12.15,0,0,1-.36-8.34,5.94,5.94,0,0,1,3.11-3.94,8.44,8.44,0,0,1,4.5-.74,37,37,0,0,1,4.31,1c1.46.43,2.9.92,4.31,1.47a.26.26,0,0,1,.18.09,30.7,30.7,0,0,0,7.24,2,2.58,2.58,0,0,0,1.47-.18,1.8,1.8,0,0,0,.46-.74,2.42,2.42,0,0,0-.74-2.47,18.55,18.55,0,0,0-5-3.4,40,40,0,0,0-4.13-2.2q-3.84-2.19-5.22-3.11a23.56,23.56,0,0,1-4.59-4.13q-4.67-5.6-2.47-13.2a1.45,1.45,0,0,1,.18-.64A20.22,20.22,0,0,1,190.18,94a29.23,29.23,0,0,1,14.94-5.78q11-1,17.88,2.48A12.68,12.68,0,0,1,228.78,96a9.19,9.19,0,0,1,.64,7.1q-1.2,4.86-6.6,6a28.61,28.61,0,0,1-8.71.28,4,4,0,0,0-.87-.14c-.4,0-.72,0-1,0a53.38,53.38,0,0,0-6.42-.36.74.74,0,0,0-.23,0A.56.56,0,0,1,205.4,109ZM225,132.45V132c.24-2.14-.58-4.2-2.48-6.19a37.78,37.78,0,0,0-9.07-6.37L208.52,117c-1.9-.92-3.4-1.71-4.5-2.39a14.34,14.34,0,0,1-3.48-2.47,7.37,7.37,0,0,1-1.28-1.93,4.45,4.45,0,0,1,0-2.84,5,5,0,0,1,2.75-3,12,12,0,0,1,3.48-.91,26.71,26.71,0,0,1,3.58.09c.42,0,1.68.09,3.76.27l1.74.19a28.62,28.62,0,0,0,7.06-.09,3,3,0,0,0,2.47-2.11,4,4,0,0,0-.27-3.3,7.49,7.49,0,0,0-3.3-2.75q-5.59-2.76-14.86-1.93a23.37,23.37,0,0,0-12.1,4.58q-4.59,3.59-5.32,7.89a.74.74,0,0,1,0,.23.59.59,0,0,1-.14.23,8.39,8.39,0,0,0,1.83,7q2,2.66,8.07,5.86,2.57,1.29,4.22,2.2a27.58,27.58,0,0,1,6.42,4.5,7.79,7.79,0,0,1,2,7.79,6.23,6.23,0,0,1-3.11,4,7.79,7.79,0,0,1-4.5.83,20.11,20.11,0,0,1-4.4-.92c-1-.3-2.5-.79-4.4-1.46a.24.24,0,0,1-.18-.1,41.39,41.39,0,0,0-7.24-2.1,3.52,3.52,0,0,0-1.47.09,1.23,1.23,0,0,0-.28.64q-1.46,4.68,3.21,8.34a20.65,20.65,0,0,0,10,4.13,46.21,46.21,0,0,0,8.07.55,28.23,28.23,0,0,0,8.52-1.38,14.15,14.15,0,0,0,6.7-4.76A17.69,17.69,0,0,0,225,132.45Z"/><path class="cls-1" d="M261.52,125.59a13.78,13.78,0,0,0,4.71,4.65,7.44,7.44,0,0,0,5.63.39,28.46,28.46,0,0,0,5.41-2.13,40.19,40.19,0,0,1,4.4-1.93,12.2,12.2,0,0,1,4.9-1c4,0,6.82,2.62,8.46,7.77a10.3,10.3,0,0,1-.48,8A17.55,17.55,0,0,1,290,147a25.05,25.05,0,0,1-9.6,5.17,43,43,0,0,1-20.94-.14,37.54,37.54,0,0,1-17.34-9.64,30.28,30.28,0,0,1-8.74-16.3q-1.74-9.91,3.66-19.78,8-15,22.38-17.76A31.54,31.54,0,0,1,282.52,93a24.38,24.38,0,0,1,8.08,7.49,16.37,16.37,0,0,1,2.92,9,13.36,13.36,0,0,1-4,9.53q-4,4.14-11.8,6.7A22.58,22.58,0,0,1,261.52,125.59Zm-3.09-9.09A16.91,16.91,0,0,0,275.76,120q6.33-2,9.39-5.26a7.8,7.8,0,0,0,2.36-5.31,10.44,10.44,0,0,0-2.23-5.85,21.06,21.06,0,0,0-5.95-5.4,25.62,25.62,0,0,0-18.77-3.65Q249,96.71,242.37,109.14a24.08,24.08,0,0,0-3,16,22.63,22.63,0,0,0,7,12.89,30.88,30.88,0,0,0,14.71,8.15,37.32,37.32,0,0,0,17.92,0,15.14,15.14,0,0,0,2.85-1.08,29.67,29.67,0,0,0,4.23-2.74,12.28,12.28,0,0,0,2.93-3.53,4.65,4.65,0,0,0,.27-3.59,7.21,7.21,0,0,0-1.71-3.09,2,2,0,0,0-1.17-.51,8.58,8.58,0,0,0-2.58.65c-.07,0-1.41.57-4,1.7a28.66,28.66,0,0,1-6.48,2.53,13.61,13.61,0,0,1-9.86-.81c-3-1.49-5.7-4.36-8.13-8.61a36.87,36.87,0,0,1-2.15-4.59,8.55,8.55,0,0,1-.5-2.09,4.17,4.17,0,0,1,.46-2.69,2.76,2.76,0,0,1,1.79-1.49A2.66,2.66,0,0,1,258.43,116.5Zm10.92-12.92a4.31,4.31,0,0,1,4.74,3.93,4.09,4.09,0,0,1-1,3.1,4.21,4.21,0,0,1-3,1.55,4.28,4.28,0,0,1-3.15-1,4,4,0,0,1-1.59-2.86,4.12,4.12,0,0,1,1-3.2A4.21,4.21,0,0,1,269.35,103.58Z"/><path class="cls-1" d="M323.82,116.68a6,6,0,0,0-1.48,6.52c.91,2.51,2.51,3.89,4.81,4.12a17.78,17.78,0,0,0,4.2-.32,53.61,53.61,0,0,0,5.29-1.26c.14-.06,1.25-.26,2.43-.45a19.2,19.2,0,0,1,6.32-.06q7.35,1.33,9.8,10.07c.59,2.15.12,4.47-1.41,6.94a24.7,24.7,0,0,1-5.27,5.24c-4.31,3.37-4.85,4.53-9.81,5.54a43.37,43.37,0,0,1-16.4.37,34.64,34.64,0,0,1-14.14-5.59q-14.58-10.11-11.59-30.9a31.85,31.85,0,0,1,10.9-20,37.11,37.11,0,0,1,18.74-8.26q10.6-1.39,17.86,2.68,8.64,4.91,8,14.44a13.28,13.28,0,0,1-1.62,5.59,9.12,9.12,0,0,1-5.11,4.44,16.56,16.56,0,0,1-9.49.14,5.07,5.07,0,0,1-.85-.21c-.44-.13-.89-.25-1.35-.35a27.69,27.69,0,0,0-4.93-1.06A11,11,0,0,0,323.82,116.68Zm5.3-8.52a30.38,30.38,0,0,1,5.3.81l2,.41a11.15,11.15,0,0,0,6.1-.41q2.24-1,2.24-4.88,0-5.7-5.49-8.34-5.91-2.66-14.14-.92a30,30,0,0,0-15.06,7.94,25.6,25.6,0,0,0-7.63,16.78q-1.32,17.21,10.78,24.42c7.26,4.34,11.83,6.18,21.94,3.47a30.12,30.12,0,0,0,11.09-6.31,14.57,14.57,0,0,0,3.46-4.07,2.56,2.56,0,0,0,.61-1.93,9.82,9.82,0,0,0-2.54-4.17,5.45,5.45,0,0,0-2.85-1.12,12.9,12.9,0,0,0-4.28.41,46.2,46.2,0,0,0-5.39,1.62c-.2,0-1.18.6-2,.81a22.27,22.27,0,0,1-5.91.81q-7.22-.19-10.37-7.43-3.06-6.7,1.73-12.81a14.5,14.5,0,0,1,4.58-3.87,9.77,9.77,0,0,1,5.08-1.32,1.63,1.63,0,0,1,.36,0Z"/><path class="cls-1" d="M398.35,128.15h.28a72.26,72.26,0,0,0,8.41-1.42,5,5,0,0,0,1.13-.19q6.22-1.23,6.51-1.32a26.93,26.93,0,0,1,5.1-.47,12.08,12.08,0,0,1,6.66,2.5,11.65,11.65,0,0,1,4,5.52,10.3,10.3,0,0,1,.14,6.8,11,11,0,0,1-4.2,5.66q-4.15,3-12.23,4.58a61.15,61.15,0,0,1-16.47.9q-9.45-.57-15.49-3.78-7.74-3.77-9.44-10.76a20.23,20.23,0,0,1,3.69-17.56,37.27,37.27,0,0,1,6-6.33,74.4,74.4,0,0,1,7-5q1.89-1.32,7.09-4.63a59.67,59.67,0,0,0,5.38-3.87q2.55-2.44,2.17-4a3.26,3.26,0,0,0-1-1.8,2.58,2.58,0,0,0-1.42-.28,12.07,12.07,0,0,0-3.11.57l-4.25,1.32-4,1.32a21.18,21.18,0,0,1-7.45.94c-4.1-.37-6.61-2.61-7.56-6.7a9.36,9.36,0,0,1,1.8-8.5l.19-.19a25.57,25.57,0,0,1,10.1-8.35,35.67,35.67,0,0,1,14.06-3.64,27.93,27.93,0,0,1,14.17,3,21.59,21.59,0,0,1,10.1,11.23,21.5,21.5,0,0,1-1.23,20,36.84,36.84,0,0,1-5.85,7.64,90.29,90.29,0,0,1-7.18,6.23c-.56.45-1.34,1-2.31,1.75l-3.45,2.6c-.31.19-1.92,1.41-4.81,3.68A19,19,0,0,0,398.35,128.15Zm-16.9-42.77a4.29,4.29,0,0,0-.57,3.58,2.62,2.62,0,0,0,2.46,2.27,14.89,14.89,0,0,0,5.47-.76l1.75-.56c.79-.25,1.43-.44,1.94-.57Q396.27,88,397,87.83a18.93,18.93,0,0,1,4.62-.75q6,0,7.84,6.13a7.45,7.45,0,0,1-.47,5.57,13.75,13.75,0,0,1-3.31,4.16,51.17,51.17,0,0,1-6,4.53q-1.69.94-7.08,4.53-8.11,5.3-11.52,9.91a14.56,14.56,0,0,0-2.74,12.94q.94,4.34,6.33,7.08a36.3,36.3,0,0,0,13.41,3.21,61.45,61.45,0,0,0,14.63-.8q7.17-1.28,10.39-3.64a5,5,0,0,0,2-6.13,5.85,5.85,0,0,0-5.67-4.16,20.63,20.63,0,0,0-3.77.47q-1.23.19-6.33,1.23a2.33,2.33,0,0,0-.57.1,2.69,2.69,0,0,1-.56.09,74,74,0,0,1-9.07,1.51,14.21,14.21,0,0,1-3.77-.09,5.62,5.62,0,0,1-1.89-.85,3.54,3.54,0,0,1-1.61-2.46,7,7,0,0,1,1.61-5.1,20.66,20.66,0,0,1,3.87-4q.75-.66,5-3.87c1.14-.82,2.05-1.5,2.74-2s1.28-1,1.75-1.33.86-.64,1.18-.89q8.59-6.8,11.61-12.28A17,17,0,0,0,413,77.54a21.87,21.87,0,0,0-11.23-2.36,29.74,29.74,0,0,0-11.76,3,19.78,19.78,0,0,0-8.16,6.75A1.9,1.9,0,0,0,381.45,85.38Z"/></g></svg>