<svg xmlns="http://www.w3.org/2000/svg" viewBox="0 0 461 257"><defs><style>.cls-1{fill:#4c6aba;}.cls-2{opacity:0.7;}.cls-3{fill:#ec8461;}</style></defs><title>LOGOTIPO-AEIQSEC2</title><g id="Capa_2" data-name="Capa 2"><path class="cls-1" d="M83.78,123.57a58.21,58.21,0,0,0,12.36-2.23c17.3-5.14,33.35-17.31,49.06-37.2l1.22-1.56c5-6.31,10.07-12.83,16.69-14.94,9.85-3.13,20.78,4,27.71,11.81,3,3.37,5.74,7,8.62,10.91,5,6.68,10.09,13.58,17,19.08,17.14,13.68,42.93,14.94,61.32,3,10.74-7,18.19-17.3,25.4-27.29C311,74.27,318.41,64,329.33,58.87a33,33,0,0,1,12-3V44.22a44.71,44.71,0,0,0-16.91,4.07c-13.67,6.4-22.33,18.41-30.71,30-6.88,9.54-13.38,18.54-22.29,24.32-14.3,9.29-34.35,8.31-47.68-2.33-5.7-4.55-10.16-10.56-14.89-16.92-2.9-3.91-5.91-8-9.28-11.73-9.37-10.48-24.79-20-39.95-15.15C149.52,59.71,143,68,137.23,75.38L136,76.9c-14.16,17.94-28.3,28.81-43.21,33.25a45.06,45.06,0,0,1-8.32,1.62"/><g class="cls-2"><path class="cls-3" d="M84.5,64.1c5.32.11,10.81,2.81,14.86,6,6.58,5.11,11.55,11.8,16.81,18.89,1.88,2.53,3.83,5.16,5.85,7.68,10,12.53,20.07,19.24,30.77,20.54a32.39,32.39,0,0,0,3.79.23c14.94,0,28-10.45,36.84-18.61L197,95.49c9.22-8.68,18.74-17.66,30.57-20.35,16.29-3.71,33,5.63,44.16,14.11,1.89,1.44,3.81,3,5.66,4.45,6.33,5.06,12.89,10.29,20.58,13.65,15.2,6.64,31.2,4.68,44.3.43l-.12-6.11c-12.34,4.28-27.6,6.55-41.85.33-7-3.06-12.95-7.82-19.27-12.86-1.88-1.5-3.82-3.06-5.77-4.54-17.41-13.24-34.35-18.48-49-15.15C212.85,72.49,202.73,82,193,91.24c-1.17,1.1-2.34,2.2-3.51,3.28-8.68,8.06-21.85,18.57-35.95,16.86-9.1-1.1-17.9-7.11-26.91-18.39-2-2.44-3.87-5-5.72-7.52-5.27-7.08-10.71-14.41-17.91-20C98,61.63,91.28,58.4,84.5,58.27"/></g><g class="cls-2"><path class="cls-3" d="M87,73.57c.12,4.6.59,9.16.85,13.74A65,65,0,0,1,87,100.82c-.29,1.89,2.6,2.7,2.9.8a69.49,69.49,0,0,0,1-14c-.24-4.68-.73-9.33-.86-14-.06-1.92-3.06-1.93-3,0Z"/></g><g class="cls-2"><path class="cls-3" d="M95.82,79l.43,21.16c0,1.93,3,1.94,3,0L98.82,79c0-1.93-3-1.94-3,0Z"/></g><g class="cls-2"><path class="cls-3" d="M166.3,73.65q1.26,13.32,3.47,26.53c.32,1.9,3.21,1.09,2.89-.8q-2.13-12.8-3.36-25.73c-.18-1.9-3.18-1.92-3,0Z"/></g><g class="cls-2"><path class="cls-3" d="M158.28,87.74a95.51,95.51,0,0,1,3,12.82,1.5,1.5,0,0,0,1.84,1,1.53,1.53,0,0,0,1-1.84,94,94,0,0,0-3-12.82c-.57-1.83-3.47-1-2.89.8Z"/></g><g class="cls-2"><path class="cls-3" d="M151.32,91.82a74.82,74.82,0,0,0,2.5,12c.55,1.84,3.45,1.06,2.9-.8a69.39,69.39,0,0,1-2.4-11.22,1.56,1.56,0,0,0-1.5-1.5,1.5,1.5,0,0,0-1.5,1.5Z"/></g><g class="cls-2"><path class="cls-3" d="M247.59,79.6a112.7,112.7,0,0,1-1.35,24.34c-.32,1.89,2.57,2.7,2.89.8a115.68,115.68,0,0,0,1.46-25.14c-.1-1.92-3.1-1.94-3,0Z"/></g><g class="cls-2"><path class="cls-3" d="M231.88,81.68a39.16,39.16,0,0,1-2.36,15.69,1.52,1.52,0,0,0,1,1.85,1.54,1.54,0,0,0,1.85-1,41.15,41.15,0,0,0,2.47-16.49c-.11-1.92-3.11-1.93-3,0Z"/></g><g class="cls-2"><path class="cls-3" d="M255.77,89.13l.81,10.74a1.54,1.54,0,0,0,1.5,1.5,1.51,1.51,0,0,0,1.5-1.5l-.81-10.74a1.54,1.54,0,0,0-1.5-1.5,1.51,1.51,0,0,0-1.5,1.5Z"/></g><g class="cls-2"><path class="cls-3" d="M325.83,67.58q.84,15.4,2.28,30.79c.18,1.9,3.18,1.92,3,0Q329.67,83,328.83,67.58c-.1-1.92-3.1-1.94-3,0Z"/></g><g class="cls-2"><path class="cls-3" d="M314.9,74.31c.13,6.38.26,12.76.16,19.14,0,2.1-.16,4.2-.16,6.3a1.5,1.5,0,0,0,3,0c0-2.1.13-4.2.16-6.3.1-6.38,0-12.76-.16-19.14,0-1.93-3-1.93-3,0Z"/></g><g class="cls-2"><path class="cls-3" d="M336.23,69.42a197.92,197.92,0,0,0,2.2,22.66,1.5,1.5,0,0,0,1.84,1,1.54,1.54,0,0,0,1.05-1.85,190.66,190.66,0,0,1-2.09-21.86c-.07-1.93-3.08-1.94-3,0Z"/></g><path class="cls-1" d="M85.08,209.74l3.51-8.4h0l3.52,8.4H90.75L90,207.82h-2.8l-.79,1.92Zm2.53-3h1.93L89,205.52c-.08-.22-.17-.43-.24-.63a5.6,5.6,0,0,1-.23-.72q-.11.41-.21.72t-.24.63Z"/><path class="cls-1" d="M95.17,209.89a3.48,3.48,0,0,1-.93-.13,3.25,3.25,0,0,1-.8-.36,2.7,2.7,0,0,1-.61-.48l.37-1.52a2.76,2.76,0,0,0,.5.65,2.55,2.55,0,0,0,.69.47,1.92,1.92,0,0,0,.82.18,1.45,1.45,0,0,0,.68-.16,1.11,1.11,0,0,0,.44-.42,1.08,1.08,0,0,0,.17-.6,1,1,0,0,0-.19-.61,1.52,1.52,0,0,0-.41-.39,3.85,3.85,0,0,0-.38-.23l-1-.49a6.16,6.16,0,0,1-.7-.42,2.32,2.32,0,0,1-.61-.67,2,2,0,0,1-.25-1,2.28,2.28,0,0,1,.17-.89,1.89,1.89,0,0,1,.49-.7,2.13,2.13,0,0,1,.76-.45,2.7,2.7,0,0,1,1-.17,3.07,3.07,0,0,1,1.21.23,4,4,0,0,1,.84.49l-.35,1.5a2.87,2.87,0,0,0-.47-.52,2.59,2.59,0,0,0-.61-.38,1.76,1.76,0,0,0-.68-.14,1.26,1.26,0,0,0-.57.12,1,1,0,0,0-.36.34.9.9,0,0,0-.13.49.82.82,0,0,0,.13.48,1,1,0,0,0,.33.33,3.21,3.21,0,0,0,.38.23l1,.49.5.28a2.72,2.72,0,0,1,.55.45,2.06,2.06,0,0,1,.44.66,2.2,2.2,0,0,1,.18.93,2.41,2.41,0,0,1-.33,1.25,2.35,2.35,0,0,1-.9.87A2.82,2.82,0,0,1,95.17,209.89Z"/><path class="cls-1" d="M103,209.91a4.17,4.17,0,0,1-1.66-.33,4.39,4.39,0,0,1-1.36-.91,4.31,4.31,0,0,1-.92-1.35,4.24,4.24,0,0,1,0-3.28,4.31,4.31,0,0,1,.92-1.35,4.32,4.32,0,0,1,6,0,4.31,4.31,0,0,1,.92,1.35,4.24,4.24,0,0,1,0,3.28,4.31,4.31,0,0,1-.92,1.35,4.39,4.39,0,0,1-1.36.91A4.17,4.17,0,0,1,103,209.91Zm0-1.28a2.69,2.69,0,0,0,1.13-.23,2.79,2.79,0,0,0,.92-.63,2.82,2.82,0,0,0,.61-.94,3.12,3.12,0,0,0,0-2.3,2.82,2.82,0,0,0-.61-.94,2.79,2.79,0,0,0-.92-.63,2.92,2.92,0,0,0-2.27,0,2.79,2.79,0,0,0-.92.63,3,3,0,0,0-.61.94,3.12,3.12,0,0,0,0,2.3,3,3,0,0,0,.61.94,2.79,2.79,0,0,0,.92.63A2.7,2.7,0,0,0,103,208.63Z"/><path class="cls-1" d="M112.56,209.91a4.16,4.16,0,0,1-1.65-.33,4.39,4.39,0,0,1-1.36-.91,4.31,4.31,0,0,1-.92-1.35,4.13,4.13,0,0,1,0-3.28,4.31,4.31,0,0,1,.92-1.35,4.31,4.31,0,0,1,3-1.23,4.15,4.15,0,0,1,1.58.29,4,4,0,0,1,1.3.81l-.37,1.57a3.17,3.17,0,0,0-1-1,2.77,2.77,0,0,0-1.46-.39,2.81,2.81,0,0,0-2,.86,3,3,0,0,0-.62.94,3.12,3.12,0,0,0,0,2.3,3,3,0,0,0,.62.94,2.86,2.86,0,0,0,.91.63,2.7,2.7,0,0,0,1.14.23,2.77,2.77,0,0,0,1.46-.39,3.17,3.17,0,0,0,1-1l.37,1.57a4.59,4.59,0,0,1-1.3.81A4.15,4.15,0,0,1,112.56,209.91Z"/><path class="cls-1" d="M116.85,209.74v-8.12h1.36v8.12Z"/><path class="cls-1" d="M119.43,209.74l3.51-8.4h0l3.51,8.4H125.1l-.78-1.92h-2.8l-.78,1.92Zm2.53-3h1.93l-.51-1.22c-.08-.22-.17-.43-.24-.63a5.6,5.6,0,0,1-.23-.72,7.09,7.09,0,0,1-.21.72q-.11.3-.24.63Z"/><path class="cls-1" d="M131.12,209.91a4.2,4.2,0,0,1-1.66-.33,4.51,4.51,0,0,1-1.36-.91,4.31,4.31,0,0,1-.92-1.35,4.24,4.24,0,0,1,0-3.28,4.23,4.23,0,0,1,2.28-2.25,4.2,4.2,0,0,1,1.66-.33,4.25,4.25,0,0,1,2.88,1.1l-.38,1.57a3.08,3.08,0,0,0-1-1,2.75,2.75,0,0,0-1.46-.39,2.85,2.85,0,0,0-2.66,1.8,3.12,3.12,0,0,0,0,2.3,2.82,2.82,0,0,0,.61.94,2.79,2.79,0,0,0,.92.63,2.66,2.66,0,0,0,1.13.23,2.75,2.75,0,0,0,1.46-.39,3.08,3.08,0,0,0,1-1l.38,1.57a4.64,4.64,0,0,1-1.31.81A4.1,4.1,0,0,1,131.12,209.91Z"/><path class="cls-1" d="M135.41,209.74v-8.12h1.35v8.12Z"/><path class="cls-1" d="M142.63,209.91a4.2,4.2,0,0,1-1.66-.33,4.51,4.51,0,0,1-1.36-.91,4.31,4.31,0,0,1-.92-1.35,4.24,4.24,0,0,1,0-3.28,4.23,4.23,0,0,1,2.28-2.25,4.32,4.32,0,0,1,4.68.9,4.31,4.31,0,0,1,.92,1.35,4.24,4.24,0,0,1,0,3.28,4.31,4.31,0,0,1-.92,1.35,4.39,4.39,0,0,1-1.36.91A4.17,4.17,0,0,1,142.63,209.91Zm0-1.28a2.7,2.7,0,0,0,1.14-.23,2.86,2.86,0,0,0,.91-.63,3,3,0,0,0,.62-.94,3.12,3.12,0,0,0,0-2.3,3,3,0,0,0-.62-.94,2.9,2.9,0,0,0-3.19-.63,2.9,2.9,0,0,0-.92.63,3,3,0,0,0-.61.94,3.12,3.12,0,0,0,0,2.3,3,3,0,0,0,.61.94,2.9,2.9,0,0,0,.92.63A2.7,2.7,0,0,0,142.63,208.63Zm-.64-7.77,1.33-1.73h1.62l-1.74,1.73Z"/><path class="cls-1" d="M154.92,210l-5.26-5.48v5.21h-1.25v-8.39h0l5.27,5.48v-5.21h1.24V210Z"/><path class="cls-1" d="M162.36,209.74v-8.12h4.17v1.16h-2.87v1.49h2.24v1.14h-2.24v3.14h2.87v1.19Z"/><path class="cls-1" d="M170,209.89a3.6,3.6,0,0,1-.93-.13,3.17,3.17,0,0,1-.79-.36,2.49,2.49,0,0,1-.61-.48l.37-1.52a2.71,2.71,0,0,0,.49.65,2.77,2.77,0,0,0,.7.47,1.92,1.92,0,0,0,.82.18,1.41,1.41,0,0,0,.67-.16,1.14,1.14,0,0,0,.45-.42,1.08,1.08,0,0,0,.16-.6,1,1,0,0,0-.18-.61,1.67,1.67,0,0,0-.41-.39,3.85,3.85,0,0,0-.38-.23l-1-.49a5.32,5.32,0,0,1-.69-.42,2.19,2.19,0,0,1-.61-.67,1.92,1.92,0,0,1-.25-1,2.11,2.11,0,0,1,.17-.89,2,2,0,0,1,.48-.7,2.32,2.32,0,0,1,.76-.45,2.74,2.74,0,0,1,1-.17,3.12,3.12,0,0,1,1.22.23,4,4,0,0,1,.84.49l-.35,1.5a2.6,2.6,0,0,0-.48-.52,2.35,2.35,0,0,0-.6-.38,1.8,1.8,0,0,0-.68-.14,1.26,1.26,0,0,0-.57.12,1,1,0,0,0-.37.34,1,1,0,0,0-.13.49.9.9,0,0,0,.13.48,1.15,1.15,0,0,0,.33.33,3.29,3.29,0,0,0,.39.23l1,.49c.14.07.3.17.49.28a2.47,2.47,0,0,1,.55.45,2.26,2.26,0,0,1,.45.66,2.2,2.2,0,0,1,.18.93,2.41,2.41,0,0,1-.33,1.25,2.46,2.46,0,0,1-.91.87A2.82,2.82,0,0,1,170,209.89Z"/><path class="cls-1" d="M174,209.74v-8.12h2.23a3.44,3.44,0,0,1,1.4.25,2.55,2.55,0,0,1,.93.65,2.66,2.66,0,0,1,.51.87,2.77,2.77,0,0,1,.17.93,3,3,0,0,1-.16.91,2.56,2.56,0,0,1-.52.88,2.67,2.67,0,0,1-.93.65,3.61,3.61,0,0,1-1.4.25h-.93v2.73Zm1.3-3.89h.86a2,2,0,0,0,1-.23,1.39,1.39,0,0,0,.55-.58,1.87,1.87,0,0,0,.16-.72,1.71,1.71,0,0,0-.16-.72,1.3,1.3,0,0,0-.54-.58,1.94,1.94,0,0,0-1.05-.24h-.86Z"/><path class="cls-1" d="M178.92,209.74l3.51-8.4h0l3.51,8.4H184.6l-.79-1.92H181l-.78,1.92Zm2.54-3h1.92l-.51-1.22q-.12-.33-.24-.63c-.08-.2-.15-.44-.23-.72a7.23,7.23,0,0,1-.2.72c-.07.2-.16.41-.25.63Z"/><path class="cls-1" d="M193.61,210l-5.26-5.48v5.21H187.1v-8.39h0l5.26,5.48v-5.21h1.25V210Zm-5.27-8.68-.26-1a1.4,1.4,0,0,1,.49-.53,1.14,1.14,0,0,1,.64-.19,1.37,1.37,0,0,1,.66.16l.59.32a1.28,1.28,0,0,0,.58.15.75.75,0,0,0,.51-.17,1.28,1.28,0,0,0,.36-.49l.25,1a1.37,1.37,0,0,1-.48.53,1.19,1.19,0,0,1-.64.18,1.33,1.33,0,0,1-.65-.16l-.6-.31a1.16,1.16,0,0,0-.59-.16.8.8,0,0,0-.5.17A1.23,1.23,0,0,0,188.34,201.33Z"/><path class="cls-1" d="M199.41,209.91a4.12,4.12,0,0,1-1.65-.33,4.39,4.39,0,0,1-1.36-.91,4.31,4.31,0,0,1-.92-1.35,4.13,4.13,0,0,1,0-3.28,4.31,4.31,0,0,1,.92-1.35,4.19,4.19,0,0,1,1.36-.9,4.12,4.12,0,0,1,1.65-.33,4.22,4.22,0,0,1,1.67.33,4.17,4.17,0,0,1,2.27,2.25,4.24,4.24,0,0,1,0,3.28,4.29,4.29,0,0,1-.91,1.35,4.51,4.51,0,0,1-1.36.91A4.22,4.22,0,0,1,199.41,209.91Zm0-1.28a2.7,2.7,0,0,0,1.14-.23,2.79,2.79,0,0,0,.92-.63,3,3,0,0,0,.61-.94,3.12,3.12,0,0,0,0-2.3,3,3,0,0,0-.61-.94,2.79,2.79,0,0,0-.92-.63,2.87,2.87,0,0,0-1.14-.23,2.86,2.86,0,0,0-2,.86,2.82,2.82,0,0,0-.61.94,3,3,0,0,0,0,2.3,2.82,2.82,0,0,0,.61.94,2.79,2.79,0,0,0,.92.63A2.63,2.63,0,0,0,199.41,208.63Z"/><path class="cls-1" d="M205.2,209.74v-8.12h1.35v6.93h2.63v1.19Z"/><path class="cls-1" d="M209.75,209.74l3.51-8.4h0l3.51,8.4h-1.36l-.79-1.92h-2.8l-.78,1.92Zm2.54-3h1.92l-.51-1.22q-.12-.33-.24-.63c-.08-.2-.15-.44-.23-.72a7.23,7.23,0,0,1-.2.72l-.25.63Z"/><path class="cls-1" d="M220.64,209.74v-8.39h0l3.8,5,3.72-5h0v8.39h-1.3v-3c0-.26,0-.54,0-.85s0-.67.07-1.07a7.67,7.67,0,0,1-.54.84l-.48.67-1.54,2.13-1.6-2.13-.49-.68c-.18-.25-.36-.53-.55-.84,0,.4.07.76.08,1.07s0,.6,0,.86v3Z"/><path class="cls-1" d="M232.82,209.89a3,3,0,0,1-1.45-.35,2.43,2.43,0,0,1-1-1,2.89,2.89,0,0,1-.36-1.47v-5.48h1.35V207a1.8,1.8,0,0,0,.19.85,1.41,1.41,0,0,0,.52.56,1.51,1.51,0,0,0,.76.2,1.46,1.46,0,0,0,.76-.2,1.38,1.38,0,0,0,.52-.55,1.73,1.73,0,0,0,.19-.81v-5.47h1.3v5.45a3,3,0,0,1-.36,1.49,2.52,2.52,0,0,1-1,1A2.92,2.92,0,0,1,232.82,209.89Z"/><path class="cls-1" d="M238.91,209.74v-6.93h-2.08v-1.19h5.51v1.19h-2.08v6.93Z"/><path class="cls-1" d="M241.8,209.74l3.51-8.4h0l3.51,8.4h-1.36l-.79-1.92h-2.8l-.78,1.92Zm2.54-3h1.92l-.51-1.22q-.12-.33-.24-.63c-.08-.2-.15-.44-.23-.72a7.23,7.23,0,0,1-.2.72l-.25.63Z"/><path class="cls-1" d="M253.49,209.91a4.2,4.2,0,0,1-1.66-.33,4.63,4.63,0,0,1-1.36-.91,4.49,4.49,0,0,1-.92-1.35,4.24,4.24,0,0,1,0-3.28,4.49,4.49,0,0,1,.92-1.35,4.42,4.42,0,0,1,1.36-.9,4.2,4.2,0,0,1,1.66-.33,4.1,4.1,0,0,1,1.57.29,4,4,0,0,1,1.31.81l-.38,1.57a3,3,0,0,0-1-1,2.74,2.74,0,0,0-1.45-.39,2.87,2.87,0,0,0-1.14.23,2.79,2.79,0,0,0-.92.63,3,3,0,0,0-.61.94,3.12,3.12,0,0,0,0,2.3,3,3,0,0,0,.61.94,2.79,2.79,0,0,0,.92.63,2.7,2.7,0,0,0,1.14.23,2.74,2.74,0,0,0,1.45-.39,3,3,0,0,0,1-1l.38,1.57a4.64,4.64,0,0,1-1.31.81A4.1,4.1,0,0,1,253.49,209.91Z"/><path class="cls-1" d="M257.78,209.74v-8.12h1.35v8.12Z"/><path class="cls-1" d="M265,209.91a4.2,4.2,0,0,1-1.66-.33,4.63,4.63,0,0,1-1.36-.91,4.49,4.49,0,0,1-.92-1.35,4.24,4.24,0,0,1,0-3.28,4.49,4.49,0,0,1,.92-1.35,4.42,4.42,0,0,1,1.36-.9,4.37,4.37,0,0,1,3.33,0,4.26,4.26,0,0,1,1.35.9,4.15,4.15,0,0,1,.92,1.35,4.24,4.24,0,0,1,0,3.28,4.15,4.15,0,0,1-.92,1.35,4.46,4.46,0,0,1-1.35.91A4.22,4.22,0,0,1,265,209.91Zm0-1.28a2.7,2.7,0,0,0,1.14-.23,2.75,2.75,0,0,0,.91-.63,2.85,2.85,0,0,0,.62-.94,3.12,3.12,0,0,0,0-2.3,2.85,2.85,0,0,0-.62-.94,2.75,2.75,0,0,0-.91-.63,2.94,2.94,0,0,0-2.28,0,2.75,2.75,0,0,0-.91.63,2.85,2.85,0,0,0-.62.94,3.12,3.12,0,0,0,0,2.3,2.85,2.85,0,0,0,.62.94,2.75,2.75,0,0,0,.91.63A2.7,2.7,0,0,0,265,208.63Zm-.64-7.77,1.34-1.73h1.61l-1.74,1.73Z"/><path class="cls-1" d="M277.3,210,272,204.53v5.21h-1.24v-8.39h0l5.27,5.48v-5.21h1.24V210Z"/><path class="cls-1" d="M285.85,209.91a4.28,4.28,0,0,1-1.69-.33,4.21,4.21,0,0,1-1.37-.89,4.39,4.39,0,0,1-.92-1.34,4.34,4.34,0,0,1,0-3.32,4.34,4.34,0,0,1,.93-1.35,4.4,4.4,0,0,1,1.37-.9,4.19,4.19,0,0,1,1.68-.32,4.15,4.15,0,0,1,1.58.29,4,4,0,0,1,1.31.81l-.38,1.55a3,3,0,0,0-1-1,2.82,2.82,0,0,0-1.48-.39,2.93,2.93,0,0,0-1.16.23,2.73,2.73,0,0,0-.93.63,3.06,3.06,0,0,0-.62,1,3.22,3.22,0,0,0,0,2.34,2.87,2.87,0,0,0,.61.95,2.9,2.9,0,0,0,2.09.86,3.07,3.07,0,0,0,.82-.1,2.28,2.28,0,0,0,.7-.28v-1.85h-1.95V205.3h3.19v3.76a4.44,4.44,0,0,1-1.27.63A5.2,5.2,0,0,1,285.85,209.91Z"/><path class="cls-1" d="M290.42,209.74v-8.12h4.17v1.16h-2.87v1.49H294v1.14h-2.24v3.14h2.87v1.19Z"/><path class="cls-1" d="M302.62,210l-5.26-5.48v5.21h-1.25v-8.39h0l5.26,5.48v-5.21h1.25V210Z"/><path class="cls-1" d="M307.43,209.74v-8.12h1.36v8.12Z"/><path class="cls-1" d="M317.47,210l-.6-.72a4.61,4.61,0,0,1-1,.45,4.21,4.21,0,0,1-1.18.17,4.12,4.12,0,0,1-1.65-.33,4.39,4.39,0,0,1-1.36-.91,4.31,4.31,0,0,1-.92-1.35,4.13,4.13,0,0,1,0-3.28,4.31,4.31,0,0,1,.92-1.35,4.19,4.19,0,0,1,1.36-.9,4.12,4.12,0,0,1,1.65-.33,4.17,4.17,0,0,1,1.66.33,4.23,4.23,0,0,1,2.28,2.25,4.11,4.11,0,0,1,.33,1.64,4,4,0,0,1-.31,1.58,4.33,4.33,0,0,1-.84,1.31L319,210Zm-2.82-1.38a2.86,2.86,0,0,0,.73-.09,2.76,2.76,0,0,0,.65-.26l-2.17-2.6h1.51l1.54,1.85a3,3,0,0,0,.47-.85,3.16,3.16,0,0,0-.06-2.15,3,3,0,0,0-.61-.94,2.79,2.79,0,0,0-.92-.63,2.87,2.87,0,0,0-1.14-.23,2.86,2.86,0,0,0-2,.86,2.82,2.82,0,0,0-.61.94,3,3,0,0,0,0,2.3,2.82,2.82,0,0,0,.61.94,2.79,2.79,0,0,0,.92.63A2.63,2.63,0,0,0,314.65,208.63Z"/><path class="cls-1" d="M322.17,209.89a3.6,3.6,0,0,1-.93-.13,3.42,3.42,0,0,1-.8-.36,2.64,2.64,0,0,1-.6-.48l.37-1.52a2.71,2.71,0,0,0,.49.65,2.77,2.77,0,0,0,.7.47,1.92,1.92,0,0,0,.82.18,1.41,1.41,0,0,0,.67-.16,1.14,1.14,0,0,0,.45-.42,1.08,1.08,0,0,0,.16-.6,1,1,0,0,0-.18-.61,1.67,1.67,0,0,0-.41-.39,3.85,3.85,0,0,0-.38-.23l-1-.49a5.32,5.32,0,0,1-.69-.42,2.19,2.19,0,0,1-.61-.67,1.92,1.92,0,0,1-.25-1,2.11,2.11,0,0,1,.17-.89,2,2,0,0,1,.48-.7,2.32,2.32,0,0,1,.76-.45,2.74,2.74,0,0,1,1-.17,3.12,3.12,0,0,1,1.22.23,4,4,0,0,1,.84.49l-.35,1.5a2.6,2.6,0,0,0-.48-.52,2.35,2.35,0,0,0-.6-.38,1.8,1.8,0,0,0-.68-.14,1.23,1.23,0,0,0-.57.12,1,1,0,0,0-.37.34,1,1,0,0,0-.13.49.9.9,0,0,0,.13.48,1.15,1.15,0,0,0,.33.33,2.65,2.65,0,0,0,.39.23l1,.49c.15.07.31.17.5.28a2.47,2.47,0,0,1,.55.45,2.26,2.26,0,0,1,.45.66,2.21,2.21,0,0,1,.17.93,2.4,2.4,0,0,1-.32,1.25,2.46,2.46,0,0,1-.91.87A2.82,2.82,0,0,1,322.17,209.89Z"/><path class="cls-1" d="M326.22,209.74v-8.12h4.17v1.16h-2.87v1.49h2.24v1.14h-2.24v3.14h2.87v1.19Z"/><path class="cls-1" d="M335.42,209.91a4.2,4.2,0,0,1-1.66-.33,4.51,4.51,0,0,1-1.36-.91,4.31,4.31,0,0,1-.92-1.35,4.24,4.24,0,0,1,0-3.28,4.23,4.23,0,0,1,2.28-2.25,4.2,4.2,0,0,1,1.66-.33,4.25,4.25,0,0,1,2.88,1.1l-.38,1.57a3,3,0,0,0-1-1,2.75,2.75,0,0,0-1.46-.39,2.85,2.85,0,0,0-1.13.23,2.79,2.79,0,0,0-.92.63,2.82,2.82,0,0,0-.61.94,3.12,3.12,0,0,0,0,2.3,2.82,2.82,0,0,0,.61.94,2.79,2.79,0,0,0,.92.63,2.69,2.69,0,0,0,1.13.23,2.75,2.75,0,0,0,1.46-.39,3,3,0,0,0,1-1l.38,1.57a4.64,4.64,0,0,1-1.31.81A4.1,4.1,0,0,1,335.42,209.91Z"/><path class="cls-1" d="M339.55,209.74h0l3.28-4.83a2.63,2.63,0,0,0,.3-.56,1.41,1.41,0,0,0,.08-.43,1.24,1.24,0,0,0-.17-.63,1.32,1.32,0,0,0-.46-.45,1.31,1.31,0,0,0-.65-.16,1.28,1.28,0,0,0-.65.16,1.17,1.17,0,0,0-.46.45,1.24,1.24,0,0,0-.17.63,1.27,1.27,0,0,0,.14.58,1.48,1.48,0,0,0,.41.5h-1.5a2.23,2.23,0,0,1-.28-1.08,2.34,2.34,0,0,1,.19-.95,2.44,2.44,0,0,1,.54-.77,2.54,2.54,0,0,1,.8-.53,2.72,2.72,0,0,1,1-.19,2.66,2.66,0,0,1,1,.19,2.62,2.62,0,0,1,.81.52,2.26,2.26,0,0,1,.55.78,2.19,2.19,0,0,1,.2.95,2.33,2.33,0,0,1-.06.53,2.29,2.29,0,0,1-.2.53,5.59,5.59,0,0,1-.35.58l-2.09,3h2.83v1.19Z"/><path class="cls-1" d="M91.84,132.05a10,10,0,0,1,1.39-.14,6.82,6.82,0,0,1,3.57.91,8.86,8.86,0,0,1,4.2,5.31,6.74,6.74,0,0,1-1.12,6.93q-3.57,4-7.83,3.43A9.25,9.25,0,0,1,85,137.43c.74-2.8,2.73-4.59,6-5.38A1.42,1.42,0,0,1,91.84,132.05ZM85.26,160.5a7.62,7.62,0,0,1,2.66-5.29,7.71,7.71,0,0,1,5.17-1.92,7.62,7.62,0,0,1,5.25,1.92,9,9,0,0,1,2.87,6.17q.42,4.49.42,24a8.24,8.24,0,0,1-8.12,8.73,8.08,8.08,0,0,1-5.45-2,8.32,8.32,0,0,1-3-6.25q-.36-5.85-.32-13.42c0-5.05.15-8.83.39-11.34A1.31,1.31,0,0,1,85.26,160.5Zm5.6-24a2.92,2.92,0,0,0-1.82,2,4.32,4.32,0,0,0,.7,3.64,4,4,0,0,0,2.93,2.1c1.26.24,2.62-.44,4.06-2a2.75,2.75,0,0,0,.28-2.87,4.89,4.89,0,0,0-2.24-2.94,5.7,5.7,0,0,0-3.56,0,.74.74,0,0,0-.18,0ZM89.25,162.1c-.24,2.46-.35,6.08-.35,10.86s.11,9,.35,12.54a3.79,3.79,0,0,0,1.26,2.72,4.56,4.56,0,0,0,5.8,0,3.9,3.9,0,0,0,1.12-2.88q0-18.43-.35-23.48a4.16,4.16,0,0,0-1.33-2.81,3.78,3.78,0,0,0-2.66-1,3.74,3.74,0,0,0-2.58.88,3.37,3.37,0,0,0-1.12,2.41.49.49,0,0,0-.07.32A1.15,1.15,0,0,1,89.25,162.1Z"/><path class="cls-1" d="M136.11,160.21a14.13,14.13,0,0,0-2.55-2.66,1,1,0,0,0-.4-.4,11.06,11.06,0,0,0-5.8-2.32,8.47,8.47,0,0,0-5.44,1.46q-4.4,2.79-5.82,9.27t1.48,11.2q3.48,5.67,11.25,5.36s2.43.25,2.61-.39c.29-1-2.41-2.07-3-3s-1.75-3.31-1.48-4.45a1.18,1.18,0,0,0,0-.2,3.29,3.29,0,0,1,3.24-2.83,9.3,9.3,0,0,1,1.17.06c1,.17,2.12,2.35,3,3,.51.38,1.67,1.43,2.27,1.21h0a18.23,18.23,0,0,0,1.2-10.84A13.05,13.05,0,0,0,136.11,160.21Zm-1.89,7.46c-.45.69-2.11-2.26-4.88-1.63a6.81,6.81,0,0,0-3.54,1.68,7.24,7.24,0,0,0-1.94,4.38c-.17,1.62.71,5,.17,5.18-.88.25-4.46-5.33-4.45-8.89a11.73,11.73,0,0,1,1.63-5.61,7.33,7.33,0,0,1,4.88-3.25c3.22-.37,5.51,2.15,6.51,3.25C132.86,163.08,134.78,166.82,134.22,167.67Z"/><path class="cls-1" d="M155.12,187.45a8.1,8.1,0,0,0-3.45-3.79q-2.74-1.64-4.76-2.67a5.25,5.25,0,0,1-.59-.24,45.78,45.78,0,0,0,1.62-4.84A23.76,23.76,0,0,0,146.35,157a24,24,0,0,0-9.06-9.35,19.4,19.4,0,0,0-8.93-2.63q-5.82-.44-9.52,1.73-9.42,5.5-12,15.2a24.88,24.88,0,0,0,1.61,17.16,24.56,24.56,0,0,0,4.82,7.13A21.86,21.86,0,0,0,120,191q8,3.48,16.55-.54a16.87,16.87,0,0,0,4.24,2.86,24.46,24.46,0,0,0,5.09,1.85,10.17,10.17,0,0,0,5.92,0,5.11,5.11,0,0,0,3.45-3.18A5.66,5.66,0,0,0,155.12,187.45Zm-4.71,1.74a2.16,2.16,0,0,1-1.37,1.22,6.94,6.94,0,0,1-3.87,0,24.14,24.14,0,0,1-4.14-1.52,10.86,10.86,0,0,1-3.8-2.81,1.84,1.84,0,0,0-.9-.55,2.07,2.07,0,0,0-1.06.15q-7.25,3.87-13.89.94a18.15,18.15,0,0,1-9.25-9.61,20.36,20.36,0,0,1-1.33-14.09q2-7.76,9.79-12.37a12.32,12.32,0,0,1,7.2-1.23,15.4,15.4,0,0,1,7,2,19.49,19.49,0,0,1,9.75,16.76,23.29,23.29,0,0,1-1,6.39,55.88,55.88,0,0,1-2,5.54,1.45,1.45,0,0,0,0,1.17,1.59,1.59,0,0,0,.84.83s.06,0,.06,0,0,0,.05,0,.09,0,.17.08a.29.29,0,0,0,.16.08l.39.17.5.24.44.22q2.44,1.26,4.25,2.34a4.79,4.79,0,0,1,1.91,2A2.37,2.37,0,0,1,150.41,189.19Z"/><path class="cls-1" d="M173.92,160.59c.27.18.61.39,1,.61,1.36.73,2.4,1.27,3.13,1.63l3.8,1.91a30.39,30.39,0,0,1,7.34,5.16q3.54,3.54,3.33,7.61a.58.58,0,0,1,0,.41,17.47,17.47,0,0,1-3.39,9.58,14.37,14.37,0,0,1-6.8,4.83,25.68,25.68,0,0,1-7.61,1.29,49.94,49.94,0,0,1-6.66-.41,19.42,19.42,0,0,1-9.38-3.94,10.89,10.89,0,0,1-3.53-4.35,9,9,0,0,1-.28-6.18,4.38,4.38,0,0,1,2.31-2.92,6.17,6.17,0,0,1,3.33-.55,24.4,24.4,0,0,1,3.2.75c1.09.32,2.15.68,3.19,1.09a.22.22,0,0,1,.14.06,23,23,0,0,0,5.37,1.5,1.83,1.83,0,0,0,1.08-.14c.1,0,.21-.22.34-.54a1.82,1.82,0,0,0-.54-1.84,14.08,14.08,0,0,0-3.74-2.51,29.17,29.17,0,0,0-3-1.63q-2.86-1.63-3.88-2.31a17.85,17.85,0,0,1-3.4-3.06,10,10,0,0,1-1.83-9.79,1.08,1.08,0,0,1,.13-.47,15,15,0,0,1,5.1-6.86,21.68,21.68,0,0,1,11.08-4.29q8.16-.73,13.25,1.84a9.44,9.44,0,0,1,4.28,3.91,6.81,6.81,0,0,1,.48,5.26,5.87,5.87,0,0,1-4.9,4.49,21.3,21.3,0,0,1-6.45.2,3.18,3.18,0,0,0-.65-.1l-.71,0a39.83,39.83,0,0,0-4.76-.28l-.17,0ZM188.47,178v-.34a5.65,5.65,0,0,0-1.84-4.59,28,28,0,0,0-6.73-4.72l-3.67-1.84c-1.4-.68-2.51-1.26-3.33-1.76a10.66,10.66,0,0,1-2.58-1.84,5.55,5.55,0,0,1-.95-1.42,3.31,3.31,0,0,1,0-2.11,3.66,3.66,0,0,1,2-2.24,8.61,8.61,0,0,1,2.58-.68,18.3,18.3,0,0,1,2.65.06q.48,0,2.79.21l1.29.13a20.79,20.79,0,0,0,5.23-.06,2.26,2.26,0,0,0,1.84-1.57,3,3,0,0,0-.21-2.44,5.52,5.52,0,0,0-2.44-2q-4.15-2-11-1.43a17.24,17.24,0,0,0-9,3.4,9.61,9.61,0,0,0-3.95,5.84.55.55,0,0,1,0,.17.4.4,0,0,1-.1.17,6.21,6.21,0,0,0,1.36,5.17c1,1.31,3,2.76,6,4.35,1.27.63,2.31,1.18,3.12,1.63a20.18,20.18,0,0,1,4.76,3.33,5.81,5.81,0,0,1,1.5,5.78,4.66,4.66,0,0,1-2.31,3,5.9,5.9,0,0,1-3.33.61,15.14,15.14,0,0,1-3.27-.68c-.77-.23-1.85-.59-3.26-1.09a.17.17,0,0,1-.13-.07,30.94,30.94,0,0,0-5.37-1.56,2.75,2.75,0,0,0-1.09.07.9.9,0,0,0-.2.47q-1.09,3.47,2.37,6.19a15.26,15.26,0,0,0,7.41,3,33.67,33.67,0,0,0,6,.41,21.09,21.09,0,0,0,6.32-1,10.42,10.42,0,0,0,5-3.53A13,13,0,0,0,188.47,178Z"/><path class="cls-1" d="M215.26,172.1a10.11,10.11,0,0,0,3.08,3.67,5.46,5.46,0,0,0,4,.66,20.43,20.43,0,0,0,4-1.18,33.75,33.75,0,0,1,3.3-1.1,8.84,8.84,0,0,1,3.6-.36c2.89.29,4.75,2.35,5.58,6.16a7.48,7.48,0,0,1-.88,5.73,12.65,12.65,0,0,1-3.67,3.74,18.27,18.27,0,0,1-7.27,3.09A31.14,31.14,0,0,1,212,191a27.16,27.16,0,0,1-11.85-8.11,21.93,21.93,0,0,1-5.22-12.33,21.5,21.5,0,0,1,4-14q6.75-10.28,17.32-11.3A22.86,22.86,0,0,1,232.59,150a17.65,17.65,0,0,1,5.32,5.95,11.75,11.75,0,0,1,1.5,6.68,9.66,9.66,0,0,1-3.52,6.6,20.5,20.5,0,0,1-9,4A16.34,16.34,0,0,1,215.26,172.1Zm-1.62-6.76A12.23,12.23,0,0,0,225.9,169a15.76,15.76,0,0,0,7.13-3.15,5.62,5.62,0,0,0,2.05-3.67,7.52,7.52,0,0,0-1.21-4.37,15.26,15.26,0,0,0-3.93-4.3,18.59,18.59,0,0,0-13.29-3.89q-8.51.81-14.09,9.33a17.46,17.46,0,0,0-3.23,11.3,16.46,16.46,0,0,0,4.18,9.77,22.41,22.41,0,0,0,10.06,6.86,27,27,0,0,0,12.92,1.21,10.35,10.35,0,0,0,2.13-.59,21.32,21.32,0,0,0,3.23-1.68,9,9,0,0,0,2.35-2.35,3.35,3.35,0,0,0,.44-2.57,5.24,5.24,0,0,0-1-2.35,1.35,1.35,0,0,0-.8-.44,6.26,6.26,0,0,0-1.91.29c-.05,0-1.06.32-3,1a20.56,20.56,0,0,1-4.85,1.39,9.85,9.85,0,0,1-7-1.25q-3.08-1.9-5.28-6.75a25.86,25.86,0,0,1-1.25-3.45,6.32,6.32,0,0,1-.22-1.54,3.06,3.06,0,0,1,.51-1.91,2,2,0,0,1,1.4-1A1.92,1.92,0,0,1,213.64,165.34Zm8.74-8.59a3.14,3.14,0,0,1,3.16,3.16,3,3,0,0,1-.92,2.17,3.16,3.16,0,0,1-4.44,0,2.92,2.92,0,0,1-1-2.17,3,3,0,0,1,1-2.24A3.08,3.08,0,0,1,222.38,156.75Z"/><path class="cls-1" d="M264.46,163.93a5.27,5.27,0,0,0-2.93,2,4.33,4.33,0,0,0-.74,4.77,4,4,0,0,0,3.67,2.72,12.91,12.91,0,0,0,3-.44,37.17,37.17,0,0,0,3.75-1.18.77.77,0,0,1,.29-.07c2.06-.68,3.5-1.12,4.33-1.32a14.26,14.26,0,0,1,4.56-.37q5.36.6,7.56,6.76a6.18,6.18,0,0,1-.66,5.06,17.75,17.75,0,0,1-3.53,4,23.82,23.82,0,0,1-9.69,5.43,31.08,31.08,0,0,1-11.78,1.11,25.16,25.16,0,0,1-10.47-3.31q-11-6.52-9.91-21.66a22.94,22.94,0,0,1,6.83-15,26.86,26.86,0,0,1,13.07-6.91q7.56-1.53,13,1,6.45,3.09,6.46,10a9.78,9.78,0,0,1-.88,4.11,6.66,6.66,0,0,1-3.46,3.45,12,12,0,0,1-6.82.59,4.07,4.07,0,0,1-.63-.11c-.32-.08-.65-.14-1-.19a20.44,20.44,0,0,0-3.6-.51A1.22,1.22,0,0,1,264.46,163.93Zm1.1-4.34a21.82,21.82,0,0,1,3.82.59l1.47.29a8.06,8.06,0,0,0,4.41-.29c1.07-.49,1.61-1.66,1.61-3.52a6.31,6.31,0,0,0-4-6q-4.26-1.92-10.21-.66a21.71,21.71,0,0,0-10.87,5.72,18.5,18.5,0,0,0-5.5,12.12q-1,12.41,7.78,17.62,7.86,4.69,18.8,1.76a21.78,21.78,0,0,0,8-4.55,10.6,10.6,0,0,0,2.5-2.94,1.86,1.86,0,0,0,.44-1.39,7.05,7.05,0,0,0-1.84-3,3.9,3.9,0,0,0-2.06-.81,9.43,9.43,0,0,0-3.08.29A33.41,33.41,0,0,0,273,176a.82.82,0,0,0-.37.07c-2.1.69-3.45,1.1-4,1.25a16,16,0,0,1-4.25.59q-5.22-.15-7.49-5.36a8.39,8.39,0,0,1,1.25-9.26,10.62,10.62,0,0,1,3.3-2.79,7.13,7.13,0,0,1,3.67-.95,1.25,1.25,0,0,1,.26,0Z"/><path class="cls-1" d="M316.94,174.8h.21a52.2,52.2,0,0,0,6.23-1.05,4.19,4.19,0,0,0,.84-.14c3.08-.61,4.69-.94,4.83-1a20.27,20.27,0,0,1,3.78-.35,9,9,0,0,1,4.93,1.85,8.62,8.62,0,0,1,3,4.1,7.65,7.65,0,0,1,.11,5,8.25,8.25,0,0,1-3.12,4.19q-3.08,2.25-9.06,3.4a45.23,45.23,0,0,1-12.21.66,28,28,0,0,1-11.48-2.8q-5.73-2.79-7-8a15,15,0,0,1,2.73-13,27.35,27.35,0,0,1,4.47-4.69,57,57,0,0,1,5.18-3.71c.94-.65,2.68-1.79,5.25-3.43a43.58,43.58,0,0,0,4-2.87c1.26-1.21,1.8-2.19,1.61-2.94a2.36,2.36,0,0,0-.77-1.32,1.87,1.87,0,0,0-1.05-.21,9,9,0,0,0-2.31.42l-3.15,1-2.94,1a15.71,15.71,0,0,1-5.53.7,5.84,5.84,0,0,1-5.59-5,6.9,6.9,0,0,1,1.33-6.3l.14-.14a19,19,0,0,1,7.48-6.2,26.41,26.41,0,0,1,10.43-2.69,20.72,20.72,0,0,1,10.5,2.24,16.9,16.9,0,0,1,6.57,23.16,27.06,27.06,0,0,1-4.33,5.67q-2.88,2.73-5.32,4.62c-.42.33-1,.76-1.72,1.29l-2.55,1.93q-.34.21-3.57,2.73A14.53,14.53,0,0,0,316.94,174.8Zm-12.53-31.7a3.19,3.19,0,0,0-.42,2.66,2,2,0,0,0,1.82,1.68,11.35,11.35,0,0,0,4.06-.56c.28-.1.71-.24,1.3-.42s1.06-.33,1.43-.42c1.87-.66,3-1,3.36-1.12a13.6,13.6,0,0,1,3.43-.56c2.94,0,4.87,1.51,5.81,4.55a5.53,5.53,0,0,1-.35,4.12,10.15,10.15,0,0,1-2.45,3.08,36.8,36.8,0,0,1-4.48,3.36q-1.26.71-5.25,3.36-6,3.91-8.54,7.35a10.81,10.81,0,0,0-2,9.59q.7,3.21,4.69,5.24a26.74,26.74,0,0,0,9.94,2.38,45.07,45.07,0,0,0,10.85-.59q5.31-.95,7.7-2.7a3.73,3.73,0,0,0,1.46-4.54,4.32,4.32,0,0,0-4.19-3.08,14.45,14.45,0,0,0-2.8.35c-.61.09-2.17.39-4.69.91a1.64,1.64,0,0,0-.42.07,2.54,2.54,0,0,1-.42.07A56,56,0,0,1,317.5,179a10.53,10.53,0,0,1-2.8-.07,4.11,4.11,0,0,1-1.4-.63,2.62,2.62,0,0,1-1.19-1.82,5.17,5.17,0,0,1,1.19-3.78,14.88,14.88,0,0,1,2.87-2.94c.37-.33,1.61-1.28,3.71-2.87.84-.61,1.52-1.11,2-1.51s.94-.72,1.29-1l.88-.67q6.36-5,8.61-9.1a12.63,12.63,0,0,0-4.9-17.35,16.32,16.32,0,0,0-8.33-1.75,21.94,21.94,0,0,0-8.71,2.2,14.64,14.64,0,0,0-6.06,5A1.46,1.46,0,0,0,304.41,143.1Z"/></g></svg>